<svg width="105" height="16" viewBox="0 0 105 16" fill="none" xmlns="http://www.w3.org/2000/svg">
<path d="M0 13.9241V1.98481H12.0087V3.96962H14.0068V9.93418H12.0087V11.919H4.00631V13.9038H0V13.9241ZM4.00631 9.9443H10.0107V3.97975H4.00631V9.9443ZM60.9102 15.9089V3.97975H72.9189V5.96456H74.917V11.9291H72.9189V13.9139H64.9063V15.8987H60.9102V15.9089ZM64.9165 11.9291H70.9209V5.96456H64.9165V11.9291ZM17.6053 13.9241V1.98481H15.5971V0H21.6015V11.9291H25.6078V13.9139H17.6053V13.9241ZM29.7262 13.9241V11.9392H27.7282V9.9443H29.7262V7.95949H37.7388V5.96456H29.7262V3.97975H39.7369V5.96456H41.735V13.9241H29.7262ZM31.7243 11.9291H37.7286V9.9443H31.7243V11.9291ZM46.2612 15.9089V13.9241H54.2738V11.9392H46.2612V9.9443H44.2631V3.97975H48.2694V9.9443H54.2738V3.97975H58.2801V13.9241H56.2718V15.9089H46.2612ZM76.7621 13.9241V11.9392H80.7684V5.96456H78.7704V3.97975H84.7748V11.9392H88.7811V13.9241H76.7621ZM80.7583 1.98481V0H84.7646V1.98481H80.7583ZM92.9811 13.9241V11.9392H90.983V5.96456H92.9811V3.97975H105V5.96456H94.9893V11.9291H105V13.9139H92.9811V13.9241Z" fill="white"/>
</svg>
