<svg width="174" height="174" viewBox="0 0 174 174" fill="none" xmlns="http://www.w3.org/2000/svg">
<rect x="2" y="2" width="170" height="170" stroke="white" stroke-width="4"/>
<path d="M46.6063 55.1699V50.9721H38.2021V55.1699H46.6063Z" fill="white"/>
<path d="M54.9934 50.9721V46.7914H46.6064V50.9721H54.9934Z" fill="white"/>
<path d="M63.3973 46.7914V42.5935H54.9932V46.7914H63.3973Z" fill="white"/>
<path d="M71.8011 42.5935V38.3957H63.397V42.5935H71.8011Z" fill="white"/>
<path d="M80.2054 38.3957V34.1978H71.8013V38.3957H80.2054Z" fill="white"/>
<path d="M88.5925 34.1978H92.7946V30H80.2056V34.1978H88.5925Z" fill="white"/>
<path d="M96.9965 38.3957H101.199V34.1978H92.7944V38.3957H96.9965Z" fill="white"/>
<path d="M105.401 42.5935H109.603V38.3957H101.199V42.5935H105.401Z" fill="white"/>
<path d="M113.805 46.7914H118.007V42.5935H109.603V46.7914H113.805Z" fill="white"/>
<path d="M122.192 50.9721H126.394V46.7914H118.007V50.9721H122.192Z" fill="white"/>
<path d="M130.596 55.1699H134.798V50.9721H126.394V55.1699H130.596Z" fill="white"/>
<path d="M71.8012 134.895H67.5991V139.092H76.0032V134.895H71.8012Z" fill="white"/>
<path d="M63.3974 130.697H59.1953V134.895H67.5994V130.697H63.3974Z" fill="white"/>
<path d="M54.9931 126.499H50.791V130.697H59.1951V126.499H54.9931Z" fill="white"/>
<path d="M46.6064 122.301H42.4043V126.499H50.7913V122.301H46.6064Z" fill="white"/>
<path d="M38.2021 118.103V122.301H42.4042V118.103H38.2021Z" fill="white"/>
<path d="M38.2021 63.5656H46.6062V59.3677H38.2021V55.1699H34V118.103H38.2021V63.5656Z" fill="white"/>
<path d="M50.7914 63.5656H46.6064V67.7634H54.9934V63.5656H50.7914Z" fill="white"/>
<path d="M59.1952 67.7634H54.9932V71.9613H63.3973V67.7634H59.1952Z" fill="white"/>
<path d="M67.599 71.9612H63.397V76.1591H71.8011V71.9612H67.599Z" fill="white"/>
<path d="M76.0033 76.1591H71.8013V80.3398H80.2054V76.1591H76.0033Z" fill="white"/>
<path d="M88.5924 139.092V84.5376H92.7945V80.3398H80.2055V84.5376H84.3904V139.092H76.0034V143.29H96.9966V139.092H88.5924Z" fill="white"/>
<path d="M96.9966 134.895V139.092H105.401V134.895H96.9966Z" fill="white"/>
<path d="M105.4 130.697V134.895H113.805V130.697H105.4Z" fill="white"/>
<path d="M113.805 126.499V130.697H122.192V126.499H113.805Z" fill="white"/>
<path d="M122.192 122.301V126.499H130.596V122.301H122.192Z" fill="white"/>
<path d="M130.596 122.301H134.798V118.103H130.596V122.301Z" fill="white"/>
<path d="M134.798 55.1699V59.3677H126.394V63.5656H134.798V118.103H139V55.1699H134.798Z" fill="white"/>
<path d="M118.007 63.5656V67.7634H126.394V63.5656H118.007Z" fill="white"/>
<path d="M109.603 67.7634V71.9613H118.007V67.7634H109.603Z" fill="white"/>
<path d="M101.199 71.9612V76.1591H109.603V71.9612H101.199Z" fill="white"/>
<path d="M92.7944 76.1591V80.3398H101.199V76.1591H92.7944Z" fill="white"/>
<g opacity="0.3">
<path d="M84.3905 84.5376H80.2056V80.3398H71.8015V76.1591H63.3973V71.9613H54.9932V67.7634H46.6063V63.5656H38.2021V118.103H42.4042V122.301H46.6063H50.7912V126.499H54.9932H59.1953V130.697H63.3973H67.5994V134.895H71.8015H76.0035V139.092H84.3905V84.5376Z" fill="white"/>
<path d="M46.6063 59.3677V63.5656H50.7912H54.9932V67.7634H59.1953H63.3973V71.9612H67.5994H71.8015V76.1591H76.0035H80.2056V80.3398H92.7946V76.1591H101.199V71.9612H109.603V67.7634H118.007V63.5656H126.394V59.3677H134.798V55.1699H130.596H126.394V50.9721H122.192H118.007V46.7914H113.805H109.603V42.5935H105.401H101.199V38.3957H96.9967H92.7946V34.1978H88.5925H80.2056V38.3957H71.8015V42.5935H63.3973V46.7914H54.9932V50.9721H46.6063V55.1699H38.2021V59.3677H46.6063Z" fill="white"/>
</g>
</svg>
