<svg width="197" height="212" viewBox="0 0 197 212" fill="none" xmlns="http://www.w3.org/2000/svg">
<path d="M23.5496 47.02V39.178H7.84985V47.02H23.5496Z" fill="white"/>
<path d="M39.2173 39.178V31.368H23.5496V39.178H39.2173Z" fill="white"/>
<path d="M54.9171 31.368V23.526H39.2173V31.368H54.9171Z" fill="white"/>
<path d="M70.617 23.526V15.684H54.9172V23.526H70.617Z" fill="white"/>
<path d="M86.3167 15.684V7.84201H70.6169V15.684H86.3167Z" fill="white"/>
<path d="M101.984 7.84201H109.834V0H86.3167V7.84201H101.984Z" fill="white"/>
<path d="M117.684 15.684H125.534V7.84201H109.834V15.684H117.684Z" fill="white"/>
<path d="M133.384 23.526H141.234V15.684H125.534V23.526H133.384Z" fill="white"/>
<path d="M149.084 31.368H156.934V23.526H141.234V31.368H149.084Z" fill="white"/>
<path d="M164.751 39.178H172.601V31.368H156.934V39.178H164.751Z" fill="white"/>
<path d="M180.451 47.02H188.301V39.178H172.601V47.02H180.451Z" fill="white"/>
<path d="M70.617 195.954H62.7671V203.796H78.4669V195.954H70.617Z" fill="white"/>
<path d="M54.9173 188.112H47.0674V195.954H62.7672V188.112H54.9173Z" fill="white"/>
<path d="M39.2173 180.27H31.3674V188.112H47.0672V180.27H39.2173Z" fill="white"/>
<path d="M23.5496 172.428H15.6997V180.27H31.3674V172.428H23.5496Z" fill="white"/>
<path d="M7.84985 164.586V172.428H15.6997V164.586H7.84985Z" fill="white"/>
<path d="M7.84989 62.704H23.5497V54.862H7.84989V47.02H0V164.586H7.84989V62.704Z" fill="white"/>
<path d="M31.3674 62.704H23.5496V70.546H39.2173V62.704H31.3674Z" fill="white"/>
<path d="M47.0672 70.546H39.2173V78.388H54.9171V70.546H47.0672Z" fill="white"/>
<path d="M62.7671 78.388H54.9172V86.23H70.617V78.388H62.7671Z" fill="white"/>
<path d="M78.4668 86.23H70.6169V94.04H86.3167V86.23H78.4668Z" fill="white"/>
<path d="M101.984 203.796V101.882H109.834V94.04H86.3167V101.882H94.1345V203.796H78.4668V211.638H117.684V203.796H101.984Z" fill="white"/>
<path d="M117.684 195.954V203.796H133.384V195.954H117.684Z" fill="white"/>
<path d="M133.384 188.112V195.954H149.084V188.112H133.384Z" fill="white"/>
<path d="M149.084 180.27V188.112H164.751V180.27H149.084Z" fill="white"/>
<path d="M164.751 172.428V180.27H180.451V172.428H164.751Z" fill="white"/>
<path d="M180.451 172.428H188.301V164.586H180.451V172.428Z" fill="white"/>
<path d="M188.301 47.02V54.862H172.601V62.704H188.301V164.586H196.151V47.02H188.301Z" fill="white"/>
<path d="M156.934 62.704V70.546H172.601V62.704H156.934Z" fill="white"/>
<path d="M141.234 70.546V78.388H156.934V70.546H141.234Z" fill="white"/>
<path d="M125.534 78.388V86.23H141.234V78.388H125.534Z" fill="white"/>
<path d="M109.834 86.23V94.04H125.534V86.23H109.834Z" fill="white"/>
<g opacity="0.3">
<path d="M94.1345 101.882H86.3167V94.0401H70.6169V86.2301H54.9171V78.3881H39.2174V70.546H23.5496V62.704H7.84985V164.586H15.6997V172.428H23.5496H31.3675V180.27H39.2174H47.0673V188.112H54.9171H62.767V195.954H70.6169H78.4668V203.796H94.1345V101.882Z" fill="white"/>
<path d="M23.5496 54.862V62.704H31.3675H39.2174V70.546H47.0673H54.9171V78.388H62.767H70.6169V86.23H78.4668H86.3167V94.04H109.834V86.23H125.534V78.388H141.234V70.546H156.934V62.704H172.601V54.862H188.301V47.02H180.451H172.601V39.178H164.752H156.934V31.368H149.084H141.234V23.526H133.384H125.534V15.684H117.684H109.834V7.84201H101.984H86.3167V15.684H70.6169V23.526H54.9171V31.368H39.2174V39.178H23.5496V47.02H7.84985V54.862H23.5496Z" fill="white"/>
</g>
</svg>
