<svg width="243" height="165" viewBox="0 0 243 165" fill="none" xmlns="http://www.w3.org/2000/svg">
<path d="M70.5208 62.608V54.798H62.6709V62.608H70.5208Z" fill="white"/>
<path d="M47.0032 54.798H62.6709V46.956H31.3354V54.798H47.0032Z" fill="white"/>
<path d="M31.3354 62.608V54.798H23.5176V70.45H31.3354V62.608Z" fill="white"/>
<path d="M62.6709 70.45H31.3354V78.26H78.3387V62.608H70.5208V70.45H62.6709Z" fill="white"/>
<path d="M235.016 62.608H164.527V54.798H156.677V62.608H133.192V54.798H125.342V62.608H94.0064V86.102H15.6677V93.912H62.6709V101.754H70.5208V93.912H101.856V70.45H235.016V78.26H242.866V62.608H235.016Z" fill="white"/>
<path d="M219.348 78.26V86.102H235.016V78.26H219.348Z" fill="white"/>
<path d="M203.68 86.102H125.342V93.912H219.348V86.102H203.68Z" fill="white"/>
<path d="M195.863 23.494H203.681V15.652H195.863V23.494Z" fill="white"/>
<path d="M203.68 7.84201V15.652H211.53V0H188.013V7.84201H203.68Z" fill="white"/>
<path d="M188.013 31.304H195.863V23.494H188.013V31.304Z" fill="white"/>
<path d="M180.195 39.146H188.013V31.304H180.195V39.146Z" fill="white"/>
<path d="M188.013 15.652V7.84201H172.345V15.652H188.013Z" fill="white"/>
<path d="M172.345 46.956H180.195V39.146H172.345V46.956Z" fill="white"/>
<path d="M164.527 54.798H172.345V46.956H164.527V54.798Z" fill="white"/>
<path d="M172.345 15.652H164.527V23.494H172.345V15.652Z" fill="white"/>
<path d="M164.527 23.494H156.677V31.304H164.527V23.494Z" fill="white"/>
<path d="M156.677 31.304H148.859V39.146H156.677V31.304Z" fill="white"/>
<path d="M148.86 39.146H141.01V46.956H148.86V39.146Z" fill="white"/>
<path d="M141.01 46.956H133.192V54.798H141.01V46.956Z" fill="white"/>
<path d="M117.524 101.754H125.342V93.912H117.524V101.754Z" fill="white"/>
<path d="M109.674 109.564V133.058H117.524V101.754H109.674V109.564Z" fill="white"/>
<path d="M109.674 86.102H117.524V78.26H109.674V86.102Z" fill="white"/>
<path d="M101.856 140.868H109.674V133.058H101.856V140.868Z" fill="white"/>
<path d="M109.674 101.754V93.912H101.856V101.754H109.674Z" fill="white"/>
<path d="M94.0063 148.71H101.856V140.868H94.0063V148.71Z" fill="white"/>
<path d="M94.0063 117.406V125.216H101.856V109.564H94.0063V117.406Z" fill="white"/>
<path d="M86.1885 156.52H94.0063V148.71H86.1885V156.52Z" fill="white"/>
<path d="M86.1885 133.058H94.0063V125.216H86.1885V133.058Z" fill="white"/>
<path d="M94.0063 109.564V101.754H78.3386V109.564H94.0063Z" fill="white"/>
<path d="M94.0063 62.608V54.798H86.1885V62.608H94.0063Z" fill="white"/>
<path d="M78.3386 140.868H86.1885V133.058H78.3386V140.868Z" fill="white"/>
<path d="M86.1885 54.798V46.956H78.3386V54.798H86.1885Z" fill="white"/>
<path d="M70.5208 156.52H47.0032V164.362H86.1885V156.52H70.5208Z" fill="white"/>
<path d="M78.3386 109.564H70.5208V117.406H78.3386V109.564Z" fill="white"/>
<path d="M78.3386 46.956V39.146H70.5208V46.956H78.3386Z" fill="white"/>
<path d="M62.6708 140.868H54.853V148.71H78.3386V140.868H62.6708Z" fill="white"/>
<path d="M70.5208 117.406H62.6709V125.216H70.5208V117.406Z" fill="white"/>
<path d="M62.6708 125.216H54.853V133.058H62.6708V125.216Z" fill="white"/>
<path d="M62.6708 101.754H54.853V109.564H62.6708V101.754Z" fill="white"/>
<path d="M47.0032 133.058V140.868H54.8531V133.058H47.0032Z" fill="white"/>
<path d="M54.8531 109.564H47.0032V117.406H54.8531V109.564Z" fill="white"/>
<path d="M39.1853 148.71V156.52H47.0032V148.71H39.1853Z" fill="white"/>
<path d="M47.0032 117.406H39.1853V125.216H47.0032V117.406Z" fill="white"/>
<path d="M39.1853 133.058V125.216H31.3354V148.71H39.1853V133.058Z" fill="white"/>
<path d="M39.1853 39.146H70.5208V31.304H23.5176V39.146H39.1853Z" fill="white"/>
<path d="M23.5176 39.146H15.6677V46.956H23.5176V39.146Z" fill="white"/>
<path d="M7.84985 78.26V86.102H15.6677V78.26H7.84985Z" fill="white"/>
<path d="M15.6677 46.956H7.84985V54.798H15.6677V46.956Z" fill="white"/>
<path d="M7.84989 62.608V54.798H0V78.26H7.84989V62.608Z" fill="white"/>
<g opacity="0.3">
<path d="M156.677 62.608V54.798H164.527V46.956H172.345V39.146H180.195V31.304H188.013V23.494H195.863V15.652H203.681V7.84201H188.013V15.652H172.345V23.494H164.527V31.304H156.677V39.146H148.86V46.956H141.01V54.798H133.192V62.608H156.677Z" fill="white"/>
<path d="M101.856 70.45V93.912H109.674V101.722H117.492V93.912H125.31V86.102H203.648H219.316V78.292H234.984V70.482H101.856V70.45ZM117.524 86.102H109.706V78.292H117.524V86.102Z" fill="white"/>
</g>
</svg>
