<svg width="149" height="67" viewBox="0 0 149 67" fill="none" xmlns="http://www.w3.org/2000/svg">
<path d="M28.381 16.5529V0H42.5714V2.3647H44.9365V7.09412H42.5714V9.45882H44.9365V14.1882H42.5714V16.5529H28.381ZM33.1111 7.09412H40.2063V2.3647H33.1111V7.09412ZM33.1111 14.1882H40.2063V9.45882H33.1111V14.1882Z" fill="white"/>
<path d="M49.6667 16.5529V0H54.3968V14.1882H63.8571V16.5529H49.6667Z" fill="white"/>
<path d="M68.5873 16.5529V14.1882H66.2222V2.3647H68.5873V0H80.4127V2.3647H82.7778V14.1882H80.4127V16.5529H68.5873ZM70.9524 14.1882H78.0476V2.3647H70.9524V14.1882Z" fill="white"/>
<path d="M89.873 16.5529V14.1882H87.5079V11.8235H85.1429V4.72941H87.5079V2.3647H89.873V0H99.3333V2.3647H101.698V4.72941H96.9683V2.3647H92.2381V4.72941H89.873V11.8235H92.2381V14.1882H96.9683V11.8235H101.698V14.1882H99.3333V16.5529H89.873Z" fill="white"/>
<path d="M104.063 16.5529V0H108.794V7.09412H111.159V4.72941H113.524V2.3647H115.889V0H120.619V2.3647H118.254V4.72941H115.889V7.09412H113.524V9.45882H115.889V11.8235H118.254V14.1882H120.619V16.5529H113.524V14.1882H111.159V11.8235H108.794V16.5529H104.063Z" fill="white"/>
<path d="M28.381 41.7765V25.2235H42.5714V27.5882H44.9365V34.6824H42.5714V37.0471H33.1111V41.7765H28.381ZM33.1111 34.6824H40.2063V27.5882H33.1111V34.6824Z" fill="white"/>
<path d="M47.3016 41.7765V29.9529H49.6667V27.5882H52.0317V25.2235H59.127V27.5882H61.4921V29.9529H63.8571V41.7765H59.127V37.0471H52.0317V41.7765H47.3016ZM52.0317 34.6824H59.127V29.9529H56.7619V27.5882H54.3968V29.9529H52.0317V34.6824Z" fill="white"/>
<path d="M66.2222 41.7765V25.2235H80.4127V27.5882H82.7778V34.6824H80.4127V37.0471H70.9524V41.7765H66.2222ZM70.9524 34.6824H78.0476V27.5882H70.9524V34.6824Z" fill="white"/>
<path d="M85.1429 41.7765V25.2235H101.698V27.5882H89.873V32.3176H99.3333V34.6824H89.873V39.4118H101.698V41.7765H85.1429Z" fill="white"/>
<path d="M104.063 41.7765V25.2235H118.254V27.5882H120.619V34.6824H115.889V37.0471H118.254V39.4118H120.619V41.7765H113.524V39.4118H111.159V37.0471H108.794V41.7765H104.063ZM108.794 34.6824H113.524V32.3176H115.889V27.5882H108.794V34.6824Z" fill="white"/>
<path d="M2.36508 67V64.6353H0V62.2706H4.73016V64.6353H11.8254V59.9059H2.36508V57.5412H0V52.8118H2.36508V50.4471H14.1905V52.8118H16.5556V55.1765H11.8254V52.8118H4.73016V57.5412H14.1905V59.9059H16.5556V64.6353H14.1905V67H2.36508Z" fill="white"/>
<path d="M23.6508 67V64.6353H21.2857V62.2706H18.9206V55.1765H21.2857V52.8118H23.6508V50.4471H33.1111V52.8118H35.4762V55.1765H30.746V52.8118H26.0159V55.1765H23.6508V62.2706H26.0159V64.6353H30.746V62.2706H35.4762V64.6353H33.1111V67H23.6508Z" fill="white"/>
<path d="M40.2063 67V64.6353H44.9365V52.8118H40.2063V50.4471H54.3968V52.8118H49.6667V64.6353H54.3968V67H40.2063Z" fill="white"/>
<path d="M59.127 67V64.6353H56.7619V62.2706H61.4921V64.6353H68.5873V59.9059H59.127V57.5412H56.7619V52.8118H59.127V50.4471H70.9524V52.8118H73.3175V55.1765H68.5873V52.8118H61.4921V57.5412H70.9524V59.9059H73.3175V64.6353H70.9524V67H59.127Z" fill="white"/>
<path d="M78.0476 67V64.6353H75.6825V62.2706H80.4127V64.6353H87.5079V59.9059H78.0476V57.5412H75.6825V52.8118H78.0476V50.4471H89.873V52.8118H92.2381V55.1765H87.5079V52.8118H80.4127V57.5412H89.873V59.9059H92.2381V64.6353H89.873V67H78.0476Z" fill="white"/>
<path d="M96.9683 67V64.6353H94.6032V52.8118H96.9683V50.4471H108.794V52.8118H111.159V64.6353H108.794V67H96.9683ZM99.3333 64.6353H106.429V52.8118H99.3333V64.6353Z" fill="white"/>
<path d="M113.524 67V50.4471H127.714V52.8118H130.079V59.9059H125.349V62.2706H127.714V64.6353H130.079V67H122.984V64.6353H120.619V62.2706H118.254V67H113.524ZM118.254 59.9059H122.984V57.5412H125.349V52.8118H118.254V59.9059Z" fill="white"/>
<path d="M134.81 67V64.6353H132.444V62.2706H137.175V64.6353H144.27V59.9059H134.81V57.5412H132.444V52.8118H134.81V50.4471H146.635V52.8118H149V55.1765H144.27V52.8118H137.175V57.5412H146.635V59.9059H149V64.6353H146.635V67H134.81Z" fill="white"/>
</svg>
