<svg width="231" height="136" viewBox="0 0 231 136" fill="none" xmlns="http://www.w3.org/2000/svg">
<path d="M9.73499 43.8259V40.5843H3.24512V43.8259H9.73499Z" fill="white"/>
<path d="M16.2115 40.5843V37.3558H9.73486V40.5843H16.2115Z" fill="white"/>
<path d="M22.7013 37.3558V34.1141H16.2114V37.3558H22.7013Z" fill="white"/>
<path d="M29.191 34.1141V30.8724H22.7012V34.1141H29.191Z" fill="white"/>
<path d="M35.6813 30.8724V27.6307H29.1914V30.8724H35.6813Z" fill="white"/>
<path d="M42.1578 27.6308H45.4027V24.3891H35.6812V27.6308H42.1578Z" fill="white"/>
<path d="M48.6478 30.8724H51.8927V27.6307H45.4028V30.8724H48.6478Z" fill="white"/>
<path d="M55.1375 34.1141H58.3825V30.8724H51.8926V34.1141H55.1375Z" fill="white"/>
<path d="M61.6273 37.3558H64.8722V34.1141H58.3823V37.3558H61.6273Z" fill="white"/>
<path d="M68.1038 40.5843H71.3487V37.3558H64.8721V40.5843H68.1038Z" fill="white"/>
<path d="M74.5941 43.8259H77.839V40.5843H71.3491V43.8259H74.5941Z" fill="white"/>
<path d="M29.1912 105.391H25.9463V108.633H32.4362V105.391H29.1912Z" fill="white"/>
<path d="M22.7015 102.15H19.4565V105.391H25.9464V102.15H22.7015Z" fill="white"/>
<path d="M16.2112 98.908H12.9663V102.15H19.4562V98.908H16.2112Z" fill="white"/>
<path d="M9.73468 95.6663H6.48975V98.908H12.9664V95.6663H9.73468Z" fill="white"/>
<path d="M3.24512 92.4246V95.6663H6.49006V92.4246H3.24512Z" fill="white"/>
<path d="M3.24494 50.3093H9.73482V47.0676H3.24494V43.8259H0V92.4247H3.24494V50.3093Z" fill="white"/>
<path d="M12.9666 50.3093H9.73486V53.551H16.2115V50.3093H12.9666Z" fill="white"/>
<path d="M19.4564 53.5509H16.2114V56.7926H22.7013V53.5509H19.4564Z" fill="white"/>
<path d="M25.9461 56.7926H22.7012V60.0343H29.191V56.7926H25.9461Z" fill="white"/>
<path d="M32.4363 60.0343H29.1914V63.2628H35.6813V60.0343H32.4363Z" fill="white"/>
<path d="M42.1576 108.633V66.5045H45.4025V63.2628H35.681V66.5045H38.9127V108.633H32.436V111.875H48.6475V108.633H42.1576Z" fill="white"/>
<path d="M48.6475 105.391V108.633H55.1373V105.391H48.6475Z" fill="white"/>
<path d="M55.1372 102.15V105.391H61.6271V102.15H55.1372Z" fill="white"/>
<path d="M61.6274 98.908V102.15H68.1041V98.908H61.6274Z" fill="white"/>
<path d="M68.104 95.6663V98.908H74.5939V95.6663H68.104Z" fill="white"/>
<path d="M74.5938 95.6663H77.8387V92.4246H74.5938V95.6663Z" fill="white"/>
<path d="M77.839 43.8259V47.0676H71.3491V50.3093H77.839V92.4247H81.0839V43.8259H77.839Z" fill="white"/>
<path d="M64.8721 50.3093V53.551H71.3487V50.3093H64.8721Z" fill="white"/>
<path d="M58.3823 53.5509V56.7926H64.8722V53.5509H58.3823Z" fill="white"/>
<path d="M51.8926 56.7926V60.0343H58.3825V56.7926H51.8926Z" fill="white"/>
<path d="M45.4028 60.0343V63.2628H51.8927V60.0343H45.4028Z" fill="white"/>
<g opacity="0.3">
<path d="M38.9129 66.5044H35.6813V63.2627H29.1914V60.0343H22.7015V56.7926H16.2116V53.5509H9.73499V50.3092H3.24512V92.4246H6.49006V95.6663H9.73499H12.9667V98.908H16.2116H19.4566V102.15H22.7015H25.9464V105.391H29.1914H32.4363V108.633H38.9129V66.5044Z" fill="white"/>
<path d="M9.73499 47.0676V50.3093H12.9667H16.2116V53.551H19.4566H22.7015V56.7926H25.9464H29.1914V60.0343H32.4363H35.6813V63.2628H45.4028V60.0343H51.8927V56.7926H58.3826V53.551H64.8725V50.3093H71.3491V47.0676H77.839V43.8259H74.594H71.3491V40.5842H68.1042H64.8725V37.3558H61.6275H58.3826V34.1141H55.1376H51.8927V30.8724H48.6478H45.4028V27.6307H42.1579H35.6813V30.8724H29.1914V34.1141H22.7015V37.3558H16.2116V40.5842H9.73499V43.8259H3.24512V47.0676H9.73499Z" fill="white"/>
</g>
<path d="M159.364 59.7772V56.5487H156.119V59.7772H159.364Z" fill="white"/>
<path d="M149.643 56.5487H156.119V53.307H143.166V56.5487H149.643Z" fill="white"/>
<path d="M143.166 59.7772V56.5487H139.934V63.0188H143.166V59.7772Z" fill="white"/>
<path d="M156.119 63.0188H143.166V66.2473H162.596V59.7772H159.364V63.0188H156.119Z" fill="white"/>
<path d="M227.362 59.7772H198.224V56.5487H194.979V59.7772H185.271V56.5487H182.026V59.7772H169.073V69.489H136.689V72.7174H156.119V75.9591H159.364V72.7174H172.318V63.0188H227.362V66.2473H230.607V59.7772H227.362Z" fill="white"/>
<path d="M220.886 66.2473V69.489H227.362V66.2473H220.886Z" fill="white"/>
<path d="M214.409 69.489H182.026V72.7174H220.886V69.489H214.409Z" fill="white"/>
<path d="M211.177 43.6084H214.409V40.3668H211.177V43.6084Z" fill="white"/>
<path d="M214.409 37.1383V40.3668H217.654V33.8966H207.932V37.1383H214.409Z" fill="white"/>
<path d="M207.932 46.8369H211.177V43.6085H207.932V46.8369Z" fill="white"/>
<path d="M204.701 50.0786H207.932V46.8369H204.701V50.0786Z" fill="white"/>
<path d="M207.932 40.3668V37.1383H201.456V40.3668H207.932Z" fill="white"/>
<path d="M201.456 53.307H204.701V50.0786H201.456V53.307Z" fill="white"/>
<path d="M198.224 56.5487H201.456V53.307H198.224V56.5487Z" fill="white"/>
<path d="M201.456 40.3668H198.224V43.6084H201.456V40.3668Z" fill="white"/>
<path d="M198.224 43.6085H194.979V46.8369H198.224V43.6085Z" fill="white"/>
<path d="M194.979 46.8369H191.747V50.0786H194.979V46.8369Z" fill="white"/>
<path d="M191.747 50.0786H188.502V53.307H191.747V50.0786Z" fill="white"/>
<path d="M188.503 53.307H185.271V56.5487H188.503V53.307Z" fill="white"/>
<path d="M178.794 75.9591H182.026V72.7174H178.794V75.9591Z" fill="white"/>
<path d="M175.549 79.1875V88.8993H178.794V75.9591H175.549V79.1875Z" fill="white"/>
<path d="M175.549 69.489H178.794V66.2473H175.549V69.489Z" fill="white"/>
<path d="M172.317 92.1278H175.549V88.8994H172.317V92.1278Z" fill="white"/>
<path d="M175.549 75.9591V72.7174H172.317V75.9591H175.549Z" fill="white"/>
<path d="M169.072 95.3695H172.317V92.1278H169.072V95.3695Z" fill="white"/>
<path d="M169.072 82.4292V85.6577H172.317V79.1875H169.072V82.4292Z" fill="white"/>
<path d="M165.841 98.5979H169.073V95.3695H165.841V98.5979Z" fill="white"/>
<path d="M165.841 88.8993H169.073V85.6577H165.841V88.8993Z" fill="white"/>
<path d="M169.073 79.1875V75.9591H162.596V79.1875H169.073Z" fill="white"/>
<path d="M169.073 59.7772V56.5487H165.841V59.7772H169.073Z" fill="white"/>
<path d="M162.596 92.1278H165.841V88.8994H162.596V92.1278Z" fill="white"/>
<path d="M165.841 56.5487V53.307H162.596V56.5487H165.841Z" fill="white"/>
<path d="M159.364 98.5979H149.643V101.84H165.841V98.5979H159.364Z" fill="white"/>
<path d="M162.596 79.1875H159.364V82.4292H162.596V79.1875Z" fill="white"/>
<path d="M162.596 53.307V50.0786H159.364V53.307H162.596Z" fill="white"/>
<path d="M156.119 92.1278H152.888V95.3695H162.596V92.1278H156.119Z" fill="white"/>
<path d="M159.364 82.4292H156.119V85.6577H159.364V82.4292Z" fill="white"/>
<path d="M156.119 85.6577H152.888V88.8993H156.119V85.6577Z" fill="white"/>
<path d="M156.119 75.9591H152.888V79.1875H156.119V75.9591Z" fill="white"/>
<path d="M149.643 88.8994V92.1278H152.888V88.8994H149.643Z" fill="white"/>
<path d="M152.888 79.1875H149.643V82.4292H152.888V79.1875Z" fill="white"/>
<path d="M146.411 95.3695V98.5979H149.642V95.3695H146.411Z" fill="white"/>
<path d="M149.642 82.4292H146.411V85.6577H149.642V82.4292Z" fill="white"/>
<path d="M146.411 88.8993V85.6577H143.166V95.3695H146.411V88.8993Z" fill="white"/>
<path d="M146.411 50.0786H159.364V46.8369H139.934V50.0786H146.411Z" fill="white"/>
<path d="M139.934 50.0786H136.689V53.307H139.934V50.0786Z" fill="white"/>
<path d="M133.458 66.2473V69.489H136.689V66.2473H133.458Z" fill="white"/>
<path d="M136.689 53.307H133.458V56.5487H136.689V53.307Z" fill="white"/>
<path d="M133.458 59.7772V56.5487H130.213V66.2473H133.458V59.7772Z" fill="white"/>
<g opacity="0.3">
<path d="M194.979 59.7772V56.5487H198.224V53.307H201.456V50.0786H204.701V46.8369H207.933V43.6085H211.178V40.3668H214.409V37.1383H207.933V40.3668H201.456V43.6085H198.224V46.8369H194.979V50.0786H191.748V53.307H188.503V56.5487H185.271V59.7772H194.979Z" fill="white"/>
<path d="M172.317 63.0189V72.7174H175.549V75.9459H178.781V72.7174H182.012V69.489H214.396H220.872V66.2605H227.349V63.0321H172.317V63.0189ZM178.794 69.489H175.562V66.2605H178.794V69.489Z" fill="white"/>
</g>
<line x1="109.198" y1="136" x2="109.198" y2="8.74228e-08" stroke="white" stroke-width="4"/>
</svg>
